# xmcd
#
# Track frame offsets:
#	182
#	11185
#	20662
#	31017
#	43877
#	55727
#	66085
#	78582
#	88032
#	101860
#	111180
#	123007
#	132425
#	149592
#	163820
#	180115
#	197560
#	213792
#
# Disc length: 2999
#
# Revision: 3
# Processed by: cddbd v1.5.1PL0 Copyright (c) Steve Scherf et al.
# Submitted via: EasyCDDAExtractor 7.5.0.1
# Normalized: r2:DSETVAR1
#
DISCID=f80bb512
DTITLE=Various Artist - Dreams of Country
DYEAR=1996
DGENRE=Country
TTITLE0=Tom T. Hall - Fox On The Run
TTITLE1=Loretta Lynn - Your Squaw Is On The Warpath
TTITLE2=Jim Reeves - Anna Marie
TTITLE3=Charley Pride - Help Me Make It Through The Night
TTITLE4=Brenda Lee - Silver Threads And Golden Needles
TTITLE5=Willie Nelson - On The Road Again
TTITLE6=Johnny Cash - Folsom Prison Blues
TTITLE7=Loretta Lynn - Fist City
TTITLE8=Jerry Lee Lewis - Another Place, Another Time
TTITLE9=Jim Reeves - Billy Bayou
TTITLE10=Charley Pride - Louisiana Man
TTITLE11=Loretta Lynn - Y' All Come
TTITLE12=Johnny Cash - Sunday Morning Coming Down
TTITLE13=Willie Nelson - Good Hearted Woman
TTITLE14=Brenda Lee - Coming On Strong
TTITLE15=Tom T. Hall - Old Dogs, Children And Watermelon Wine
TTITLE16=Jerry Lee Lewis - She Even Woke Me Up To Say Goodbye
TTITLE17=Jim Reeves - Am I Losing You?
EXTD=This is part 3 of 4. 
EXTT0=
EXTT1=
EXTT2=
EXTT3=
EXTT4=
EXTT5=
EXTT6=
EXTT7=
EXTT8=
EXTT9=
EXTT10=
EXTT11=
EXTT12=
EXTT13=
EXTT14=
EXTT15=
EXTT16=
EXTT17=
PLAYORDER=
